<svg xmlns="http://www.w3.org/2000/svg" width="62" height="20" viewBox="0 0 62 20">
    <path fill="#000" fill-rule="nonzero" d="M9.219 8.441c.937.254 1.637.69 2.1 1.309.462.618.693 1.38.693 2.285 0 .58-.095 1.109-.283 1.587a3.473 3.473 0 0 1-.84 1.25c-.371.355-.848.632-1.431.83-.583.199-1.245.298-1.987.298H1.24V1.791H6.6c.782 0 1.469.078 2.061.234.593.157 1.08.385 1.465.684.384.3.672.662.864 1.089.192.426.288.916.288 1.47 0 .312-.036.615-.107.908a3.513 3.513 0 0 1-.342.864 2.884 2.884 0 0 1-.644.781 3.397 3.397 0 0 1-.967.581v.04zm-4.698-3.7v2.714h1.573c.527 0 .96-.117 1.299-.351.338-.235.507-.57.507-1.006 0-.424-.157-.757-.473-1.001-.316-.244-.796-.363-1.44-.357H4.52zm1.924 8.34c.313 0 .596-.033.85-.099a2.21 2.21 0 0 0 .66-.278c.185-.12.328-.275.429-.464.1-.189.151-.407.151-.654 0-.456-.176-.82-.527-1.094-.352-.273-.873-.41-1.563-.41H4.521v2.998h1.924zm16.543-2.061c0 .234-.026.543-.078.927h-6.66c.11.534.38.95.806 1.245.426.297.929.445 1.508.445.905 0 1.696-.394 2.373-1.182l1.66 1.865c-.442.56-1.038 1.011-1.786 1.353-.75.342-1.609.513-2.579.513a5.454 5.454 0 0 1-2.016-.372 4.79 4.79 0 0 1-1.616-1.03 4.735 4.735 0 0 1-1.065-1.611 5.389 5.389 0 0 1-.39-2.066c0-.729.125-1.41.376-2.04a4.771 4.771 0 0 1 1.03-1.612 4.702 4.702 0 0 1 1.577-1.045 5.158 5.158 0 0 1 1.987-.38c.938 0 1.778.21 2.52.634a4.444 4.444 0 0 1 1.733 1.777c.414.762.62 1.621.62 2.579zm-4.843-2.49c-.482 0-.892.134-1.23.405-.34.27-.558.652-.655 1.147l3.662-.02a2.343 2.343 0 0 0-.342-.82 1.579 1.579 0 0 0-.605-.527 1.83 1.83 0 0 0-.83-.186zm9.59 7.656c-.873 0-1.57-.277-2.09-.83-.521-.554-.782-1.364-.782-2.432v-4.16H23.76v-2.55h1.103V3.09l3.125-.332v3.457h2.373v2.549h-2.373v3.574c0 .351.054.625.161.82.108.196.302.293.581.293.326 0 .648-.081.967-.244l.772 2.305a5.613 5.613 0 0 1-1.197.503c-.4.114-.913.17-1.538.17zm7.382 0c-.872 0-1.569-.277-2.09-.83-.52-.554-.78-1.364-.78-2.432v-4.16h-1.104v-2.55h1.103V3.09l3.125-.332v3.457h2.373v2.549h-2.373v3.574c0 .351.054.625.161.82.108.196.301.293.581.293.326 0 .648-.081.967-.244l.772 2.305a5.613 5.613 0 0 1-1.197.503c-.4.114-.913.17-1.538.17zm13.565-5.166c0 .234-.026.543-.078.927h-6.66c.11.534.379.95.805 1.245.426.297.93.445 1.509.445.905 0 1.696-.394 2.373-1.182l1.66 1.865c-.443.56-1.038 1.011-1.787 1.353-.749.342-1.608.513-2.578.513a5.454 5.454 0 0 1-2.017-.372 4.79 4.79 0 0 1-1.616-1.03 4.735 4.735 0 0 1-1.064-1.611 5.389 5.389 0 0 1-.391-2.066c0-.729.125-1.41.376-2.04a4.771 4.771 0 0 1 1.03-1.612 4.702 4.702 0 0 1 1.577-1.045 5.158 5.158 0 0 1 1.988-.38c.937 0 1.777.21 2.52.634a4.444 4.444 0 0 1 1.733 1.777c.413.762.62 1.621.62 2.579zm-4.844-2.49c-.482 0-.892.134-1.23.405-.34.27-.557.652-.655 1.147l3.662-.02a2.343 2.343 0 0 0-.342-.82 1.579 1.579 0 0 0-.605-.527 1.83 1.83 0 0 0-.83-.186zm12.392-2.5c.053 0 .088.003.108.01v3.368c-.189-.013-.433-.02-.733-.02-.481 0-.893.097-1.235.289a1.827 1.827 0 0 0-.762.786 2.522 2.522 0 0 0-.249 1.142V16h-3.125V6.215h3.125v1.308h.04c.247-.325.522-.599.825-.82.302-.221.623-.389.962-.503.338-.114.686-.17 1.044-.17zm3.018 10.165c-.514 0-.954-.179-1.318-.537a1.754 1.754 0 0 1-.547-1.299c0-.494.182-.92.547-1.279a1.813 1.813 0 0 1 1.318-.537c.501 0 .934.179 1.299.537.364.358.547.785.547 1.28 0 .507-.18.94-.542 1.298a1.786 1.786 0 0 1-1.304.537z"/>
</svg>
