<svg xmlns="http://www.w3.org/2000/svg" xmlns:xlink="http://www.w3.org/1999/xlink" width="20" height="20" viewBox="0 0 24 24"><path fill="#000000" id="a" d="M10.351 17.563C6.298 17.563 3 14.287 3 10.28 3 6.276 6.298 3 10.351 3c4.044 0 7.351 3.276 7.351 7.281a7.208 7.208 0 0 1-1.51 4.413l4.502 4.47c.21.207.306.473.306.757 0 .606-.45 1.079-1.07 1.079a1.09 1.09 0 0 1-.775-.312l-4.531-4.489a7.397 7.397 0 0 1-4.273 1.364zm0-1.572c3.155 0 5.764-2.585 5.764-5.71 0-3.124-2.61-5.71-5.764-5.71-3.164 0-5.764 2.586-5.764 5.71 0 3.125 2.6 5.71 5.764 5.71z"/><g fill="none" fill-rule="evenodd"><path fill-rule="nonzero" d="M0 0h24v24H0z"/><mask id="b" fill="#000000"></mask><path fill="#000000" d="M0 0h24v24H0z" mask="url(#b)"/></g></svg>