<svg xmlns="http://www.w3.org/2000/svg" width="69" height="22" viewBox="0 0 69 22">
    <path fill="#FFF" fill-rule="nonzero" d="M36.294 5.487c0 .762-.618 1.377-1.385 1.377a1.379 1.379 0 0 1-1.386-1.377c0-.763.597-1.377 1.386-1.377.789.02 1.385.635 1.385 1.377zm-5.712 2.775v.339s-.661-.847-2.068-.847c-2.323 0-4.135 1.758-4.135 4.194 0 2.415 1.79 4.195 4.135 4.195 1.428 0 2.068-.869 2.068-.869v.36c0 .17.128.297.298.297h1.727V7.965H30.88a.304.304 0 0 0-.298.297zm0 5.106c-.32.466-.96.868-1.727.868-1.364 0-2.409-.847-2.409-2.288 0-1.44 1.045-2.288 2.41-2.288.745 0 1.427.424 1.726.869v2.839zm3.304-5.403h2.046v7.966h-2.046V7.965zm30.567-.211c-1.407 0-2.068.847-2.068.847v-4.47H60.34v11.8h1.726c.17 0 .299-.148.299-.296v-.36s.66.868 2.067.868c2.324 0 4.136-1.78 4.136-4.195s-1.812-4.194-4.114-4.194zm-.341 6.461c-.789 0-1.407-.402-1.727-.868v-2.84c.32-.423 1.002-.868 1.727-.868 1.364 0 2.408.848 2.408 2.288s-1.044 2.288-2.408 2.288zm-4.84-3.008v4.745h-2.045V11.44c0-1.314-.427-1.843-1.578-1.843-.618 0-1.257.318-1.662.784v5.55H51.94V7.965h1.62c.17 0 .299.149.299.297v.339c.597-.614 1.385-.847 2.174-.847.895 0 1.641.254 2.238.762.725.593 1.002 1.356 1.002 2.69zM46.975 7.754c-1.407 0-2.068.847-2.068.847v-4.47H42.86v11.8h1.726c.17 0 .299-.148.299-.296v-.36s.66.868 2.067.868c2.324 0 4.136-1.78 4.136-4.195.02-2.415-1.79-4.194-4.114-4.194zm-.341 6.461c-.79 0-1.407-.402-1.727-.868v-2.84c.32-.423 1.002-.868 1.727-.868 1.364 0 2.408.848 2.408 2.288s-1.044 2.288-2.408 2.288zM41.09 7.754c.619 0 .938.106.938.106v1.885s-1.705-.572-2.77.636v5.571H37.21V7.965h1.727c.17 0 .298.149.298.297v.339c.384-.445 1.215-.847 1.854-.847zM19.838 15.21c-.106-.254-.213-.53-.32-.763-.17-.381-.34-.741-.49-1.08l-.02-.021a220.554 220.554 0 0 0-4.712-9.576l-.064-.127c-.17-.318-.34-.657-.511-.996-.213-.381-.427-.784-.768-1.165A3.45 3.45 0 0 0 10.246.169C9.181.17 8.221.635 7.518 1.44c-.32.382-.554.784-.768 1.166-.17.339-.34.678-.511.995l-.064.127a248.118 248.118 0 0 0-4.71 9.576l-.022.043c-.15.338-.32.699-.49 1.08-.107.233-.214.487-.32.763-.277.783-.363 1.525-.256 2.288a4.507 4.507 0 0 0 2.771 3.516c.554.233 1.13.34 1.727.34a5.655 5.655 0 0 0 2.686-.763c.873-.488 1.705-1.187 2.643-2.204.938 1.017 1.79 1.716 2.643 2.204a5.655 5.655 0 0 0 2.686.762c.596 0 1.193-.106 1.726-.339a4.498 4.498 0 0 0 2.771-3.516c.17-.742.086-1.483-.192-2.267zm-9.613 1.101c-1.151-1.44-1.897-2.796-2.153-3.94-.107-.487-.128-.911-.064-1.292.043-.34.17-.636.341-.89.405-.572 1.087-.932 1.876-.932.789 0 1.492.339 1.876.932.17.254.298.55.34.89a3.38 3.38 0 0 1-.063 1.292c-.256 1.123-1.002 2.479-2.153 3.94zm8.505.996a3.151 3.151 0 0 1-1.94 2.479 3.246 3.246 0 0 1-1.62.212 4.21 4.21 0 0 1-1.62-.551c-.767-.424-1.534-1.08-2.43-2.055 1.407-1.716 2.26-3.284 2.58-4.682.149-.657.17-1.25.106-1.8a3.425 3.425 0 0 0-.575-1.441c-.661-.954-1.77-1.505-3.006-1.505-1.236 0-2.345.572-3.006 1.505-.298.423-.49.91-.575 1.44a4.373 4.373 0 0 0 .106 1.801c.32 1.398 1.194 2.987 2.58 4.703-.874.975-1.663 1.631-2.43 2.055a4.21 4.21 0 0 1-1.62.55 3.429 3.429 0 0 1-1.62-.211 3.151 3.151 0 0 1-1.94-2.479 3.487 3.487 0 0 1 .192-1.652c.064-.212.17-.424.277-.678.15-.339.32-.7.49-1.06l.021-.042a230.999 230.999 0 0 1 4.69-9.512l.064-.127c.17-.318.341-.657.511-.974a4.65 4.65 0 0 1 .597-.933 2.234 2.234 0 0 1 1.706-.783c.66 0 1.257.275 1.705.783.234.276.426.594.597.933.17.317.34.656.511.974l.064.127a280.293 280.293 0 0 1 4.668 9.534v.02c.171.34.32.721.49 1.06.107.254.214.466.278.678.17.55.234 1.08.149 1.631z"/>
</svg>
